<svg
            width="142"
            height="48"
            viewBox="0 0 142 48"
            xmlns="http://www.w3.org/2000/svg"
          >
            <g fill="none">
              <rect width="142" height="48" rx="8" fill="#000"></rect>
              <g fill="#FFF">
                <path d="M28.72 24.36a5.94 5.94 0 0 1 2.83-4.98 6.08 6.08 0 0 0-4.79-2.6c-2.01-.2-3.97 1.21-5 1.21-1.04 0-2.62-1.18-4.32-1.14a6.38 6.38 0 0 0-5.37 3.27c-2.32 4.02-.6 9.92 1.63 13.17 1.11 1.59 2.41 3.37 4.11 3.3 1.67-.07 2.3-1.06 4.3-1.06 1.99 0 2.57 1.06 4.3 1.02 1.8-.03 2.92-1.6 4-3.2.8-1.13 1.4-2.38 1.82-3.71a5.74 5.74 0 0 1-3.5-5.28zM25.44 14.65a5.85 5.85 0 0 0 1.34-4.19 5.95 5.95 0 0 0-3.85 2 5.56 5.56 0 0 0-1.37 4.03c1.5.02 2.94-.66 3.88-1.84z"></path>
                <path d="M49.76 32.57h-5.68l-1.36 4.03h-2.4l5.37-14.9h2.5l5.38 14.9h-2.44l-1.37-4.03zm-5.09-1.86h4.5l-2.22-6.54h-.06l-2.22 6.54zM65.2 31.16c0 3.38-1.82 5.55-4.54 5.55a3.68 3.68 0 0 1-3.42-1.9h-.05v5.38h-2.23V25.73h2.16v1.8h.04a3.85 3.85 0 0 1 3.46-1.91c2.75 0 4.57 2.18 4.57 5.54zm-2.3 0c0-2.2-1.14-3.64-2.87-3.64-1.7 0-2.85 1.47-2.85 3.64 0 2.2 1.14 3.66 2.85 3.66 1.73 0 2.87-1.44 2.87-3.66zM77.15 31.16c0 3.38-1.8 5.55-4.53 5.55a3.68 3.68 0 0 1-3.42-1.9h-.05v5.38h-2.23V25.73h2.15v1.8h.05a3.85 3.85 0 0 1 3.45-1.91c2.76 0 4.58 2.18 4.58 5.54zm-2.3 0c0-2.2-1.13-3.64-2.86-3.64-1.7 0-2.85 1.47-2.85 3.64 0 2.2 1.14 3.66 2.85 3.66 1.73 0 2.87-1.44 2.87-3.66zM85.05 32.44c.17 1.48 1.6 2.45 3.57 2.45 1.87 0 3.23-.97 3.23-2.3 0-1.16-.82-1.85-2.75-2.33l-1.93-.46c-2.74-.66-4-1.94-4-4.02 0-2.57 2.23-4.33 5.41-4.33 3.15 0 5.31 1.76 5.38 4.33h-2.25c-.13-1.48-1.36-2.38-3.16-2.38s-3.02.9-3.02 2.23c0 1.05.78 1.67 2.7 2.15l1.64.4c3.06.72 4.33 1.95 4.33 4.13 0 2.79-2.22 4.53-5.75 4.53-3.3 0-5.54-1.7-5.68-4.4h2.28zM99.02 23.16v2.57h2.06v1.77h-2.06v5.99c0 .93.4 1.36 1.32 1.36.24 0 .49-.02.73-.05v1.75c-.4.08-.82.12-1.24.1-2.2 0-3.06-.82-3.06-2.93V27.5H95.2v-1.77h1.57v-2.57h2.25zM102.28 31.16c0-3.41 2.01-5.56 5.15-5.56 3.15 0 5.15 2.15 5.15 5.56 0 3.43-1.99 5.57-5.15 5.57s-5.15-2.14-5.15-5.57zm8.03 0c0-2.34-1.07-3.73-2.88-3.73-1.8 0-2.88 1.4-2.88 3.73 0 2.36 1.07 3.73 2.88 3.73 1.8 0 2.88-1.37 2.88-3.73zM114.42 25.73h2.13v1.85h.05a2.6 2.6 0 0 1 2.62-1.96c.25 0 .5.02.76.08v2.09c-.33-.1-.66-.15-1-.14a2.25 2.25 0 0 0-2.33 2.5v6.45h-2.23V25.73zM130.26 33.4c-.3 1.98-2.22 3.33-4.68 3.33-3.16 0-5.12-2.12-5.12-5.51 0-3.41 1.97-5.62 5.03-5.62 3 0 4.9 2.06 4.9 5.36v.76h-7.68v.14a2.83 2.83 0 0 0 2.92 3.07c1.09.1 2.1-.52 2.51-1.53h2.12zm-7.54-3.24h5.43a2.61 2.61 0 0 0-2.66-2.76 2.75 2.75 0 0 0-2.77 2.76z"></path>
              </g>
              <path
                d="M44.4 10.48a3.17 3.17 0 0 1 3.36 3.56c0 2.28-1.24 3.6-3.37 3.6h-2.58v-7.16h2.58zm-1.48 6.14h1.35a2.25 2.25 0 0 0 2.36-2.57 2.26 2.26 0 0 0-2.36-2.56h-1.35v5.13zM49.02 14.93a2.56 2.56 0 1 1 5.1 0 2.56 2.56 0 1 1-5.1 0zm4 0c0-1.17-.53-1.85-1.45-1.85-.93 0-1.45.68-1.45 1.85 0 1.18.52 1.86 1.45 1.86.92 0 1.45-.68 1.45-1.86zM60.89 17.64h-1.1l-1.13-3.98h-.08l-1.11 3.98h-1.1l-1.49-5.4h1.08l.97 4.12h.08l1.11-4.13h1.03l1.1 4.13h.1l.96-4.13h1.06zM63.62 12.23h1.03v.86h.08c.28-.63.93-1.02 1.61-.96a1.76 1.76 0 0 1 1.87 2v3.5h-1.06v-3.22c0-.87-.38-1.3-1.17-1.3a1.24 1.24 0 0 0-1.29 1.37v3.16h-1.07v-5.4zM69.91 10.12h1.07v7.52H69.9zM72.46 14.93a2.56 2.56 0 1 1 5.1 0 2.56 2.56 0 1 1-5.1 0zm4 0c0-1.17-.53-1.85-1.45-1.85-.93 0-1.45.68-1.45 1.85 0 1.18.52 1.86 1.45 1.86.92 0 1.45-.68 1.45-1.86zM78.68 16.1c0-.96.73-1.52 2.01-1.6l1.46-.09v-.46c0-.58-.37-.9-1.1-.9-.6 0-1.01.22-1.13.6H78.9c.1-.93.98-1.52 2.2-1.52 1.36 0 2.13.67 2.13 1.82v3.69h-1.03v-.76h-.08c-.35.55-.97.88-1.63.85a1.63 1.63 0 0 1-1.8-1.62zm3.47-.45v-.45l-1.32.08c-.74.05-1.08.3-1.08.78 0 .49.43.77 1 .77a1.27 1.27 0 0 0 1.4-1.18zM84.62 14.93c0-1.7.88-2.79 2.24-2.79.69-.03 1.34.34 1.66.95h.08v-2.97h1.06v7.52h-1.02v-.86h-.08c-.35.6-1 .97-1.7.95-1.37 0-2.24-1.09-2.24-2.8zm1.1 0c0 1.15.54 1.84 1.44 1.84.9 0 1.46-.7 1.46-1.83 0-1.13-.56-1.84-1.46-1.84-.9 0-1.44.7-1.44 1.83zM94.08 14.93a2.56 2.56 0 1 1 5.1 0 2.56 2.56 0 1 1-5.1 0zm4 0c0-1.17-.53-1.85-1.45-1.85-.93 0-1.45.68-1.45 1.85 0 1.18.52 1.86 1.45 1.86.92 0 1.45-.68 1.45-1.86zM100.6 12.23h1.03v.86h.08c.28-.63.92-1.02 1.61-.96a1.76 1.76 0 0 1 1.87 2v3.5h-1.06v-3.22c0-.87-.38-1.3-1.17-1.3a1.24 1.24 0 0 0-1.29 1.37v3.16h-1.07v-5.4zM111.22 10.89v1.37h1.17v.9h-1.17v2.78c0 .56.23.8.76.8.14 0 .27 0 .4-.02v.9c-.18.03-.38.05-.57.05-1.19 0-1.66-.42-1.66-1.46v-3.05h-.86v-.9h.86v-1.37h1.07zM113.85 10.12h1.05v2.98h.09c.29-.64.95-1.02 1.64-.97a1.78 1.78 0 0 1 1.87 2.02v3.49h-1.07V14.4c0-.86-.4-1.3-1.16-1.3a1.26 1.26 0 0 0-1.36 1.37v3.16h-1.06v-7.52zM124.71 16.18a2.2 2.2 0 0 1-2.34 1.56 2.45 2.45 0 0 1-2.5-2.79 2.5 2.5 0 0 1 2.5-2.82c1.5 0 2.4 1.03 2.4 2.72v.38h-3.8v.06a1.43 1.43 0 0 0 1.43 1.54 1.3 1.3 0 0 0 1.29-.65h1.02zm-3.75-1.74h2.73a1.3 1.3 0 0 0-1.33-1.4 1.38 1.38 0 0 0-1.4 1.4z"
                fill="#FFF"
              ></path>
            </g>
          </svg>