<svg width="162" height="48" viewBox="0 0 135 40" xmlns="http://www.w3.org/2000/svg"><defs><linearGradient x1="61.02%" y1="4.95%" x2="26.57%" y2="71.88%" id="google-a"><stop stop-color="#00A0FF" offset="0%"></stop><stop stop-color="#00A1FF" offset="1%"></stop><stop stop-color="#00BEFF" offset="26%"></stop><stop stop-color="#00D2FF" offset="51%"></stop><stop stop-color="#00DFFF" offset="76%"></stop><stop stop-color="#00E3FF" offset="100%"></stop></linearGradient><linearGradient x1="107.68%" y1="50%" x2="-130.64%" y2="50%" id="google-b"><stop stop-color="#FFE000" offset="0%"></stop><stop stop-color="#FFBD00" offset="41%"></stop><stop stop-color="orange" offset="78%"></stop><stop stop-color="#FF9C00" offset="100%"></stop></linearGradient><linearGradient x1="86.27%" y1="30.83%" x2="-50.18%" y2="136.31%" id="google-c"><stop stop-color="#FF3A44" offset="0%"></stop><stop stop-color="#C31162" offset="100%"></stop></linearGradient><linearGradient x1="-18.82%" y1="-12.05%" x2="42.09%" y2="35.04%" id="google-d"><stop stop-color="#32A071" offset="0%"></stop><stop stop-color="#2DA771" offset="7%"></stop><stop stop-color="#15CF74" offset="48%"></stop><stop stop-color="#06E775" offset="80%"></stop><stop stop-color="#00F076" offset="100%"></stop></linearGradient></defs><g fill="none"><rect fill="#000" width="135" height="40" rx="8"></rect><path d="M47.36 10.24c.04.74-.23 1.46-.74 2a2.9 2.9 0 0 1-2.2.88 3 3 0 0 1-2.2-.9 3.2 3.2 0 0 1 0-4.46 3.15 3.15 0 0 1 3.43-.65c.36.15.68.38.94.67l-.53.53a2 2 0 0 0-1.64-.72 2.4 2.4 0 1 0 1.68 4.13c.3-.33.48-.77.5-1.22h-2.18v-.72h2.9c.03.15.04.3.04.46zM51.94 7.74h-2.7v1.9h2.46v.72h-2.46v1.9h2.7V13h-3.48V7h3.48zM55.22 13h-.77V7.74h-1.68V7h4.16v.74h-1.71zM59.87 13V7h.77v6zM64.06 13h-.77V7.74H61.6V7h4.11v.74h-1.66zM73.52 12.22a3.1 3.1 0 0 1-4.39 0 3.24 3.24 0 0 1 0-4.44c.57-.6 1.37-.93 2.2-.91A3.07 3.07 0 0 1 74.4 10a3 3 0 0 1-.89 2.22zm-3.82-.5a2.29 2.29 0 0 0 3.26 0c.89-.97.89-2.47 0-3.44a2.29 2.29 0 0 0-3.26 0c-.9.97-.9 2.47 0 3.44zM75.5 13V7h.92l2.92 4.67V7h.77v6h-.8l-3.05-4.89V13z" stroke="#FFF" stroke-width="0.5" fill="#FFF"></path><path d="M68.06 21.75A4.26 4.26 0 1 0 72.33 26a4.2 4.2 0 0 0-4.27-4.25zm0 6.83a2.58 2.58 0 1 1 2.4-2.58 2.46 2.46 0 0 1-2.4 2.58zm-9.3-6.83A4.26 4.26 0 1 0 63.01 26a4.2 4.2 0 0 0-4.27-4.25zm0 6.83A2.58 2.58 0 1 1 61.14 26a2.46 2.46 0 0 1-2.4 2.58zm-11.08-5.52v1.8H52a3.77 3.77 0 0 1-1 2.27 4.41 4.41 0 0 1-3.34 1.32 4.8 4.8 0 1 1 3.28-8.31l1.27-1.27a6.29 6.29 0 0 0-4.53-1.82 6.6 6.6 0 1 0 0 13.21c1.73.07 3.4-.6 4.6-1.85a6 6 0 0 0 1.57-4.23c0-.38-.03-.75-.1-1.12h-6.07zm45.26 1.4a4 4 0 0 0-3.63-2.71 4 4 0 0 0-4 4.25 4.23 4.23 0 0 0 7.75 2.37l-1.45-1a2.4 2.4 0 0 1-2.08 1.17c-.89.04-1.7-.48-2.06-1.29l5.68-2.35-.2-.44zm-5.8 1.42a2.34 2.34 0 0 1 2.24-2.49c.65-.04 1.27.32 1.56.91l-3.8 1.58zM82.55 30h1.86V17.5h-1.87V30zm-3.06-7.3h-.07c-.57-.64-1.38-1-2.24-1a4.26 4.26 0 0 0 0 8.51c.86.02 1.68-.35 2.24-1h.07v.61c0 1.63-.87 2.5-2.27 2.5a2.36 2.36 0 0 1-2.15-1.51l-1.62.67A4 4 0 0 0 77.21 34c2.19 0 4-1.29 4-4.43V22h-1.73v.7zm-2.15 5.88a2.58 2.58 0 0 1 0-5.15A2.39 2.39 0 0 1 79.61 26a2.38 2.38 0 0 1-2.28 2.58zm24.36-11.08h-4.47V30h1.86v-4.74h2.61a3.88 3.88 0 1 0 0-7.76zm0 6h-2.6v-4.26h2.64a2.14 2.14 0 0 1 0 4.28l-.04-.02zm11.53-1.79a3.49 3.49 0 0 0-3.33 1.91l1.65.69c.34-.61 1.01-.97 1.7-.91a1.8 1.8 0 0 1 2 1.61v.12a4.17 4.17 0 0 0-1.94-.48c-1.78 0-3.6 1-3.6 2.82a2.9 2.9 0 0 0 3.1 2.75c.96.05 1.87-.41 2.39-1.22h.06v1h1.8v-4.81c0-2.19-1.66-3.46-3.8-3.46l-.03-.02zm-.23 6.85c-.61 0-1.46-.31-1.46-1.06 0-1 1.06-1.34 2-1.34.6-.01 1.18.13 1.7.42a2.26 2.26 0 0 1-2.2 2l-.04-.02zm10.6-6.56l-2.13 5.42h-.06L119.18 22h-2l3.33 7.58-1.9 4.21h1.95L125.67 22h-2.07zm-16.77 8h1.85V17.5h-1.85V30z" fill="#FFF"></path><path d="M10.43 7.54a2 2 0 0 0-.47 1.4v22.12c-.04.51.13 1.01.47 1.4l.07.08 12.37-12.39v-.3L10.5 7.47l-.07.07z" fill="url(#google-a)"></path><path d="M26.97 24.28l-4.1-4.13v-.3l4.1-4.13.09.06 4.9 2.78c1.4.79 1.4 2.09 0 2.89l-4.88 2.78-.11.05z" fill="url(#google-b)"></path><path d="M27.09 24.22L22.87 20 10.43 32.46c.58.52 1.45.55 2.07.07l14.59-8.31" fill="url(#google-c)"></path><path d="M27.09 15.78l-14.6-8.3a1.6 1.6 0 0 0-2.06.06L22.87 20l4.22-4.22z" fill="url(#google-d)"></path><path d="M26.97 24.13L12.5 32.38c-.6.45-1.41.45-2 0l-.07.07.07.08c.59.45 1.4.45 2 0l14.59-8.31-.12-.09z" fill="#000" opacity="0.2"></path><path d="M10.43 32.32a2 2 0 0 1-.44-1.41v.15c-.04.51.13 1.01.47 1.4l.07-.07-.1-.07zM31.96 21.3l-5 2.83.1.09 4.9-2.78c.6-.25 1-.8 1.06-1.44a1.86 1.86 0 0 1-1.06 1.3z" fill="#000" opacity="0.12"></path><path d="M12.5 7.62L31.96 18.7c.54.24.93.72 1.06 1.3a1.75 1.75 0 0 0-1.06-1.44L12.5 7.48c-1.4-.8-2.54-.14-2.54 1.46v.15c.03-1.6 1.15-2.26 2.54-1.47z" fill="#FFF" opacity="0.25"></path></g></svg>